<?xml version="1.0" encoding="UTF-8"?>
<!DOCTYPE svg PUBLIC "-//W3C//DTD SVG 1.1//EN" "http://www.w3.org/Graphics/SVG/1.1/DTD/svg11.dtd">
<svg version="1.2" width="1000mm" height="225mm" viewBox="0 0 100000 22500" preserveAspectRatio="xMidYMid" fill-rule="evenodd" stroke-width="28.222" stroke-linejoin="round" xmlns="http://www.w3.org/2000/svg" xmlns:ooo="http://xml.openoffice.org/svg/export" xmlns:xlink="http://www.w3.org/1999/xlink" xmlns:presentation="http://sun.com/xmlns/staroffice/presentation" xmlns:smil="http://www.w3.org/2001/SMIL20/" xmlns:anim="urn:oasis:names:tc:opendocument:xmlns:animation:1.0" xml:space="preserve">
 <defs class="ClipPathGroup">
  <clipPath id="presentation_clip_path" clipPathUnits="userSpaceOnUse">
   <rect x="0" y="0" width="100000" height="22500"/>
  </clipPath>
  <clipPath id="presentation_clip_path_shrink" clipPathUnits="userSpaceOnUse">
   <rect x="100" y="22" width="99800" height="22455"/>
  </clipPath>
 </defs>
 <defs class="TextShapeIndex">
  <g ooo:slide="id1" ooo:id-list="id3 id4 id5 id6 id7 id8 id9 id10 id11 id12 id13 id14 id15 id16 id17 id18 id19 id20 id21 id22 id23 id24 id25 id26 id27 id28 id29 id30 id31"/>
 </defs>
 <defs class="EmbeddedBulletChars">
  <g id="bullet-char-template-57356" transform="scale(0.00048828125,-0.00048828125)">
   <path d="M 580,1141 L 1163,571 580,0 -4,571 580,1141 Z"/>
  </g>
  <g id="bullet-char-template-57354" transform="scale(0.00048828125,-0.00048828125)">
   <path d="M 8,1128 L 1137,1128 1137,0 8,0 8,1128 Z"/>
  </g>
  <g id="bullet-char-template-10146" transform="scale(0.00048828125,-0.00048828125)">
   <path d="M 174,0 L 602,739 174,1481 1456,739 174,0 Z M 1358,739 L 309,1346 659,739 1358,739 Z"/>
  </g>
  <g id="bullet-char-template-10132" transform="scale(0.00048828125,-0.00048828125)">
   <path d="M 2015,739 L 1276,0 717,0 1260,543 174,543 174,936 1260,936 717,1481 1274,1481 2015,739 Z"/>
  </g>
  <g id="bullet-char-template-10007" transform="scale(0.00048828125,-0.00048828125)">
   <path d="M 0,-2 C -7,14 -16,27 -25,37 L 356,567 C 262,823 215,952 215,954 215,979 228,992 255,992 264,992 276,990 289,987 310,991 331,999 354,1012 L 381,999 492,748 772,1049 836,1024 860,1049 C 881,1039 901,1025 922,1006 886,937 835,863 770,784 769,783 710,716 594,584 L 774,223 C 774,196 753,168 711,139 L 727,119 C 717,90 699,76 672,76 641,76 570,178 457,381 L 164,-76 C 142,-110 111,-127 72,-127 30,-127 9,-110 8,-76 1,-67 -2,-52 -2,-32 -2,-23 -1,-13 0,-2 Z"/>
  </g>
  <g id="bullet-char-template-10004" transform="scale(0.00048828125,-0.00048828125)">
   <path d="M 285,-33 C 182,-33 111,30 74,156 52,228 41,333 41,471 41,549 55,616 82,672 116,743 169,778 240,778 293,778 328,747 346,684 L 369,508 C 377,444 397,411 428,410 L 1163,1116 C 1174,1127 1196,1133 1229,1133 1271,1133 1292,1118 1292,1087 L 1292,965 C 1292,929 1282,901 1262,881 L 442,47 C 390,-6 338,-33 285,-33 Z"/>
  </g>
  <g id="bullet-char-template-9679" transform="scale(0.00048828125,-0.00048828125)">
   <path d="M 813,0 C 632,0 489,54 383,161 276,268 223,411 223,592 223,773 276,916 383,1023 489,1130 632,1184 813,1184 992,1184 1136,1130 1245,1023 1353,916 1407,772 1407,592 1407,412 1353,268 1245,161 1136,54 992,0 813,0 Z"/>
  </g>
  <g id="bullet-char-template-8226" transform="scale(0.00048828125,-0.00048828125)">
   <path d="M 346,457 C 273,457 209,483 155,535 101,586 74,649 74,723 74,796 101,859 155,911 209,963 273,989 346,989 419,989 480,963 531,910 582,859 608,796 608,723 608,648 583,586 532,535 482,483 420,457 346,457 Z"/>
  </g>
  <g id="bullet-char-template-8211" transform="scale(0.00048828125,-0.00048828125)">
   <path d="M -4,459 L 1135,459 1135,606 -4,606 -4,459 Z"/>
  </g>
  <g id="bullet-char-template-61548" transform="scale(0.00048828125,-0.00048828125)">
   <path d="M 173,740 C 173,903 231,1043 346,1159 462,1274 601,1332 765,1332 928,1332 1067,1274 1183,1159 1299,1043 1357,903 1357,740 1357,577 1299,437 1183,322 1067,206 928,148 765,148 601,148 462,206 346,322 231,437 173,577 173,740 Z"/>
  </g>
 </defs>
 <defs class="TextEmbeddedBitmaps"/>
 <g>
  <g id="id2" class="Master_Slide">
   <g id="bg-id2" class="Background"/>
   <g id="bo-id2" class="BackgroundObjects"/>
  </g>
 </g>
 <g class="SlideGroup">
  <g>
   <g id="container-id1">
    <g id="id1" class="Slide" clip-path="url(#presentation_clip_path)">
     <g class="Page">
      <g class="com.sun.star.drawing.PolyPolygonShape">
       <g id="id3">
        <rect class="BoundingBox" stroke="none" fill="none" x="11013" y="9317" width="2777" height="2996"/>
        <path fill="rgb(234,30,98)" stroke="none" d="M 12059,9317 L 12323,9404 12574,9508 12813,9628 13037,9763 13248,9912 13444,10074 13624,10249 13789,10435 11013,12311 12059,9317 Z"/>
       </g>
      </g>
      <g class="com.sun.star.drawing.PolyPolygonShape">
       <g id="id4">
        <rect class="BoundingBox" stroke="none" fill="none" x="10660" y="8964" width="3483" height="3701"/>
        <path fill="rgb(234,30,98)" stroke="none" d="M 12059,9317 L 12323,9404 12574,9508 12813,9628 13037,9763 13248,9912 13444,10074 13624,10249 13789,10435 11013,12311 12059,9317 Z"/>
        <path fill="none" stroke="rgb(255,255,255)" stroke-width="705" stroke-linejoin="round" stroke-linecap="round" d="M 12059,9317 L 12323,9404 12574,9508 12813,9628 13037,9763 13248,9912 13444,10074 13624,10249 13789,10435 11013,12311 12059,9317 Z"/>
       </g>
      </g>
      <g class="com.sun.star.drawing.PolyPolygonShape">
       <g id="id5">
        <rect class="BoundingBox" stroke="none" fill="none" x="11779" y="9918" width="4168" height="2245"/>
        <path fill="rgb(234,30,98)" stroke="none" d="M 15139,9918 L 15328,10171 15491,10432 15628,10700 15741,10975 15829,11254 15892,11537 15931,11822 15946,12108 11779,12162 15139,9918 Z"/>
       </g>
      </g>
      <g class="com.sun.star.drawing.PolyPolygonShape">
       <g id="id6">
        <rect class="BoundingBox" stroke="none" fill="none" x="11426" y="9565" width="4874" height="2951"/>
        <path fill="rgb(234,30,98)" stroke="none" d="M 15139,9918 L 15328,10171 15491,10432 15628,10700 15741,10975 15829,11254 15892,11537 15931,11822 15946,12108 11779,12162 15139,9918 Z"/>
        <path fill="none" stroke="rgb(255,255,255)" stroke-width="705" stroke-linejoin="round" stroke-linecap="round" d="M 15139,9918 L 15328,10171 15491,10432 15628,10700 15741,10975 15829,11254 15892,11537 15931,11822 15946,12108 11779,12162 15139,9918 Z"/>
       </g>
      </g>
      <g class="com.sun.star.drawing.PolyPolygonShape">
       <g id="id7">
        <rect class="BoundingBox" stroke="none" fill="none" x="12851" y="12329" width="4324" height="2276"/>
        <path fill="rgb(234,30,98)" stroke="none" d="M 12851,12364 L 17174,12329 17162,12644 17123,12952 17057,13252 16967,13544 16852,13826 16714,14097 16555,14357 16375,14604 12851,12364 Z"/>
       </g>
      </g>
      <g class="com.sun.star.drawing.PolyPolygonShape">
       <g id="id8">
        <rect class="BoundingBox" stroke="none" fill="none" x="12498" y="11976" width="5030" height="2982"/>
        <path fill="rgb(234,30,98)" stroke="none" d="M 12851,12364 L 17174,12329 17162,12644 17123,12952 17057,13252 16967,13544 16852,13826 16714,14097 16555,14357 16375,14604 12851,12364 Z"/>
        <path fill="none" stroke="rgb(255,255,255)" stroke-width="705" stroke-linejoin="round" stroke-linecap="round" d="M 12851,12364 L 17174,12329 17162,12644 17123,12952 17057,13252 16967,13544 16852,13826 16714,14097 16555,14357 16375,14604 12851,12364 Z"/>
       </g>
      </g>
      <g class="com.sun.star.drawing.PolyPolygonShape">
       <g id="id9">
        <rect class="BoundingBox" stroke="none" fill="none" x="13366" y="13015" width="4389" height="4673"/>
        <path fill="rgb(234,30,98)" stroke="none" d="M 15035,17687 L 13366,13015 17754,15942 17477,16251 17178,16534 16859,16792 16522,17024 16170,17229 15803,17409 15424,17561 15035,17687 Z"/>
       </g>
      </g>
      <g class="com.sun.star.drawing.PolyPolygonShape">
       <g id="id10">
        <rect class="BoundingBox" stroke="none" fill="none" x="13013" y="12662" width="5095" height="5379"/>
        <path fill="rgb(234,30,98)" stroke="none" d="M 15035,17687 L 13366,13015 17754,15942 17477,16251 17178,16534 16859,16792 16522,17024 16170,17229 15803,17409 15424,17561 15035,17687 Z"/>
        <path fill="none" stroke="rgb(255,255,255)" stroke-width="705" stroke-linejoin="round" stroke-linecap="round" d="M 15035,17687 L 13366,13015 17754,15942 17477,16251 17178,16534 16859,16792 16522,17024 16170,17229 15803,17409 15424,17561 15035,17687 Z"/>
       </g>
      </g>
      <g class="com.sun.star.drawing.PolyPolygonShape">
       <g id="id11">
        <rect class="BoundingBox" stroke="none" fill="none" x="11379" y="13861" width="4090" height="6025"/>
        <path fill="rgb(234,30,98)" stroke="none" d="M 11379,19607 L 13345,13861 15468,19580 14949,19714 14428,19809 13908,19866 13389,19885 12875,19868 12367,19815 11868,19728 11379,19607 Z"/>
       </g>
      </g>
      <g class="com.sun.star.drawing.PolyPolygonShape">
       <g id="id12">
        <rect class="BoundingBox" stroke="none" fill="none" x="11026" y="13508" width="4796" height="6731"/>
        <path fill="rgb(234,30,98)" stroke="none" d="M 11379,19607 L 13345,13861 15468,19580 14949,19714 14428,19809 13908,19866 13389,19885 12875,19868 12367,19815 11868,19728 11379,19607 Z"/>
        <path fill="none" stroke="rgb(255,255,255)" stroke-width="705" stroke-linejoin="round" stroke-linecap="round" d="M 11379,19607 L 13345,13861 15468,19580 14949,19714 14428,19809 13908,19866 13389,19885 12875,19868 12367,19815 11868,19728 11379,19607 Z"/>
       </g>
      </g>
      <g class="com.sun.star.drawing.PolyPolygonShape">
       <g id="id13">
        <rect class="BoundingBox" stroke="none" fill="none" x="6370" y="14663" width="6450" height="6957"/>
        <path fill="rgb(234,30,98)" stroke="none" d="M 10391,21618 L 9781,21417 9199,21176 8646,20898 8123,20584 7632,20236 7175,19859 6754,19453 6370,19021 12819,14663 10391,21618 Z"/>
       </g>
      </g>
      <g class="com.sun.star.drawing.PolyPolygonShape">
       <g id="id14">
        <rect class="BoundingBox" stroke="none" fill="none" x="6017" y="14310" width="7156" height="7662"/>
        <path fill="rgb(234,30,98)" stroke="none" d="M 10391,21618 L 9781,21417 9199,21176 8646,20898 8123,20584 7632,20236 7175,19859 6754,19453 6370,19021 12819,14663 10391,21618 Z"/>
        <path fill="none" stroke="rgb(255,255,255)" stroke-width="705" stroke-linejoin="round" stroke-linecap="round" d="M 10391,21618 L 9781,21417 9199,21176 8646,20898 8123,20584 7632,20236 7175,19859 6754,19453 6370,19021 12819,14663 10391,21618 Z"/>
       </g>
      </g>
      <g class="com.sun.star.drawing.PolyPolygonShape">
       <g id="id15">
        <rect class="BoundingBox" stroke="none" fill="none" x="2621" y="15036" width="9257" height="4986"/>
        <path fill="rgb(234,30,98)" stroke="none" d="M 4415,20021 L 3996,19460 3634,18880 3328,18283 3077,17674 2882,17053 2741,16425 2654,15793 2621,15158 11877,15036 4415,20021 Z"/>
       </g>
      </g>
      <g class="com.sun.star.drawing.PolyPolygonShape">
       <g id="id16">
        <rect class="BoundingBox" stroke="none" fill="none" x="2268" y="14683" width="9963" height="5692"/>
        <path fill="rgb(234,30,98)" stroke="none" d="M 4415,20021 L 3996,19460 3634,18880 3328,18283 3077,17674 2882,17053 2741,16425 2654,15793 2621,15158 11877,15036 4415,20021 Z"/>
        <path fill="none" stroke="rgb(255,255,255)" stroke-width="705" stroke-linejoin="round" stroke-linecap="round" d="M 4415,20021 L 3996,19460 3634,18880 3328,18283 3077,17674 2882,17053 2741,16425 2654,15793 2621,15158 11877,15036 4415,20021 Z"/>
       </g>
      </g>
      <g class="com.sun.star.drawing.PolyPolygonShape">
       <g id="id17">
        <rect class="BoundingBox" stroke="none" fill="none" x="500" y="9414" width="10352" height="5448"/>
        <path fill="rgb(234,30,98)" stroke="none" d="M 10851,14778 L 500,14861 530,14107 624,13370 781,12651 998,11953 1272,11278 1601,10628 1983,10006 2414,9414 10851,14778 Z"/>
       </g>
      </g>
      <g class="com.sun.star.drawing.PolyPolygonShape">
       <g id="id18">
        <rect class="BoundingBox" stroke="none" fill="none" x="147" y="9061" width="11058" height="6154"/>
        <path fill="rgb(234,30,98)" stroke="none" d="M 10851,14778 L 500,14861 530,14107 624,13370 781,12651 998,11953 1272,11278 1601,10628 1983,10006 2414,9414 10851,14778 Z"/>
        <path fill="none" stroke="rgb(255,255,255)" stroke-width="705" stroke-linejoin="round" stroke-linecap="round" d="M 10851,14778 L 500,14861 530,14107 624,13370 781,12651 998,11953 1272,11278 1601,10628 1983,10006 2414,9414 10851,14778 Z"/>
       </g>
      </g>
      <g class="com.sun.star.drawing.PolyPolygonShape">
       <g id="id19">
        <rect class="BoundingBox" stroke="none" fill="none" x="923" y="4229" width="9600" height="10039"/>
        <path fill="rgb(234,30,98)" stroke="none" d="M 6728,4229 L 10522,14267 923,8091 1509,7414 2143,6792 2821,6224 3539,5712 4293,5256 5078,4856 5891,4514 6728,4229 Z"/>
       </g>
      </g>
      <g class="com.sun.star.drawing.PolyPolygonShape">
       <g id="id20">
        <rect class="BoundingBox" stroke="none" fill="none" x="570" y="3876" width="10306" height="10745"/>
        <path fill="rgb(234,30,98)" stroke="none" d="M 6728,4229 L 10522,14267 923,8091 1509,7414 2143,6792 2821,6224 3539,5712 4293,5256 5078,4856 5891,4514 6728,4229 Z"/>
        <path fill="none" stroke="rgb(255,255,255)" stroke-width="705" stroke-linejoin="round" stroke-linecap="round" d="M 6728,4229 L 10522,14267 923,8091 1509,7414 2143,6792 2821,6224 3539,5712 4293,5256 5078,4856 5891,4514 6728,4229 Z"/>
       </g>
      </g>
      <g class="com.sun.star.drawing.PolyPolygonShape">
       <g id="id21">
        <rect class="BoundingBox" stroke="none" fill="none" x="6114" y="882" width="8200" height="12080"/>
        <path fill="rgb(234,30,98)" stroke="none" d="M 14313,1439 L 10368,12961 6114,1492 7154,1224 8198,1034 9242,920 10282,882 11313,917 12331,1022 13333,1197 14313,1439 Z"/>
       </g>
      </g>
      <g class="com.sun.star.drawing.PolyPolygonShape">
       <g id="id22">
        <rect class="BoundingBox" stroke="none" fill="none" x="5761" y="529" width="8906" height="12786"/>
        <path fill="rgb(234,30,98)" stroke="none" d="M 14313,1439 L 10368,12961 6114,1492 7154,1224 8198,1034 9242,920 10282,882 11313,917 12331,1022 13333,1197 14313,1439 Z"/>
        <path fill="none" stroke="rgb(255,255,255)" stroke-width="705" stroke-linejoin="round" stroke-linecap="round" d="M 14313,1439 L 10368,12961 6114,1492 7154,1224 8198,1034 9242,920 10282,882 11313,917 12331,1022 13333,1197 14313,1439 Z"/>
       </g>
      </g>
      <g class="com.sun.star.drawing.PolyPolygonShape">
       <g id="id23">
        <rect class="BoundingBox" stroke="none" fill="none" x="10386" y="11902" width="3235" height="3236"/>
        <path fill="rgb(234,30,98)" stroke="none" d="M 10859,12375 L 10748,12498 10652,12629 10571,12766 10504,12910 10453,13058 10416,13210 10393,13363 10386,13518 10393,13673 10416,13827 10453,13979 10504,14127 10571,14271 10652,14408 10748,14539 10859,14662 10982,14773 11113,14869 11250,14951 11394,15017 11542,15069 11693,15106 11847,15128 12002,15136 12157,15128 12311,15106 12463,15069 12611,15017 12754,14951 12892,14869 13023,14773 13145,14662 13256,14539 13352,14408 13434,14271 13500,14127 13552,13979 13589,13827 13611,13673 13619,13518 13611,13363 13589,13210 13552,13058 13500,12910 13434,12766 13352,12629 13256,12498 13145,12375 13023,12264 12892,12168 12754,12087 12611,12020 12463,11969 12311,11932 12157,11909 12002,11902 11847,11909 11693,11932 11542,11969 11394,12020 11250,12087 11113,12168 10982,12264 10859,12375 Z"/>
       </g>
      </g>
      <g class="com.sun.star.drawing.PolyPolygonShape">
       <g id="id24">
        <rect class="BoundingBox" stroke="none" fill="none" x="10386" y="11902" width="3235" height="3236"/>
        <path fill="rgb(234,30,98)" stroke="none" d="M 10859,12375 L 10748,12498 10652,12629 10571,12766 10504,12910 10453,13058 10416,13210 10393,13363 10386,13518 10393,13673 10416,13827 10453,13979 10504,14127 10571,14271 10652,14408 10748,14539 10859,14662 10982,14773 11113,14869 11250,14951 11394,15017 11542,15069 11693,15106 11847,15128 12002,15136 12157,15128 12311,15106 12463,15069 12611,15017 12754,14951 12892,14869 13023,14773 13145,14662 13256,14539 13352,14408 13434,14271 13500,14127 13552,13979 13589,13827 13611,13673 13619,13518 13611,13363 13589,13210 13552,13058 13500,12910 13434,12766 13352,12629 13256,12498 13145,12375 13023,12264 12892,12168 12754,12087 12611,12020 12463,11969 12311,11932 12157,11909 12002,11902 11847,11909 11693,11932 11542,11969 11394,12020 11250,12087 11113,12168 10982,12264 10859,12375 Z"/>
       </g>
      </g>
      <g class="com.sun.star.drawing.ClosedBezierShape">
       <g id="id25">
        <rect class="BoundingBox" stroke="none" fill="none" x="30138" y="7613" width="11496" height="11213"/>
        <path fill="rgb(139,139,139)" stroke="none" d="M 33187,13229 C 33187,14117 33442,14844 33949,15401 34451,15962 35100,16240 35886,16240 36676,16240 37320,15962 37828,15401 38331,14844 38584,14117 38584,13229 38584,12342 38331,11615 37828,11048 37320,10481 36676,10199 35886,10199 35100,10199 34451,10481 33949,11048 33442,11615 33187,12342 33187,13229 Z M 41633,13229 C 41633,14805 41087,16132 39999,17210 38906,18289 37535,18825 35886,18825 34237,18825 32865,18289 31772,17210 30684,16132 30138,14805 30138,13229 30138,11653 30684,10325 31772,9237 32865,8155 34237,7613 35886,7613 37535,7613 38906,8155 39999,9237 41087,10325 41633,11653 41633,13229 Z"/>
       </g>
      </g>
      <g class="com.sun.star.drawing.ClosedBezierShape">
       <g id="id26">
        <rect class="BoundingBox" stroke="none" fill="none" x="51367" y="7613" width="11496" height="11213"/>
        <path fill="rgb(139,139,139)" stroke="none" d="M 57115,16240 C 56329,16240 55680,15962 55178,15401 54671,14844 54416,14117 54416,13229 54416,12342 54671,11615 55178,11048 55680,10481 56329,10199 57115,10199 57905,10199 58549,10481 59057,11048 59560,11615 59813,12342 59813,13229 59813,14117 59560,14844 59057,15401 58549,15962 57905,16240 57115,16240 Z M 62862,13229 C 62862,11653 62316,10325 61228,9237 60135,8155 58764,7613 57115,7613 55466,7613 54094,8155 53001,9237 51913,10325 51367,11653 51367,13229 51367,14805 51913,16132 53001,17210 54094,18289 55466,18825 57115,18825 58203,18825 59169,18587 60013,18117 L 60013,18825 62862,18825 62862,13370 62858,13370 C 62858,13322 62862,13278 62862,13229 Z"/>
       </g>
      </g>
      <g class="com.sun.star.drawing.ClosedBezierShape">
       <g id="id27">
        <rect class="BoundingBox" stroke="none" fill="none" x="42179" y="7613" width="9988" height="11213"/>
        <path fill="rgb(139,139,139)" stroke="none" d="M 50733,14639 C 49927,15640 49024,16142 48019,16142 47248,16142 46580,15883 46009,15372 45433,14859 45151,14142 45151,13220 45151,12296 45433,11575 46009,11058 46580,10541 47263,10282 48058,10282 48557,10282 49059,10394 49566,10624 50050,10843 50459,11150 50800,11546 51055,10697 51508,9945 52166,9282 51620,8770 51001,8375 50313,8097 49512,7775 48717,7613 47936,7613 46376,7613 45024,8135 43886,9179 42750,10223 42179,11575 42179,13239 42179,14902 42740,16250 43867,17278 44989,18313 46370,18825 48000,18825 49454,18825 50816,18244 52089,17089 51406,16377 50957,15561 50733,14639 Z"/>
       </g>
      </g>
      <g class="com.sun.star.drawing.ClosedBezierShape">
       <g id="id28">
        <rect class="BoundingBox" stroke="none" fill="none" x="75611" y="7613" width="11497" height="11213"/>
        <path fill="rgb(139,139,139)" stroke="none" d="M 78660,13229 C 78660,14117 78915,14844 79422,15401 79924,15962 80573,16240 81359,16240 82149,16240 82793,15962 83301,15401 83804,14844 84057,14117 84057,13229 84057,12342 83804,11615 83301,11048 82793,10481 82149,10199 81359,10199 80573,10199 79924,10481 79422,11048 78915,11615 78660,12342 78660,13229 Z M 87106,13229 C 87106,14805 86560,16132 85472,17210 84379,18289 83008,18825 81359,18825 79710,18825 78338,18289 77245,17210 76157,16132 75611,14805 75611,13229 75611,11653 76157,10325 77245,9237 78338,8155 79710,7613 81359,7613 83008,7613 84379,8155 85472,9237 86560,10325 87106,11653 87106,13229 Z"/>
       </g>
      </g>
      <g class="com.sun.star.drawing.ClosedBezierShape">
       <g id="id29">
        <rect class="BoundingBox" stroke="none" fill="none" x="86917" y="4543" width="7984" height="14284"/>
        <path fill="rgb(139,139,139)" stroke="none" d="M 91241,9978 L 91241,14848 C 91241,15263 91347,15589 91567,15828 91781,16063 92036,16179 92333,16179 92898,16179 93378,15926 93768,15415 L 94900,17531 C 93957,18395 92962,18825 91918,18825 90873,18825 89991,18482 89268,17795 88551,17107 88190,16175 88190,14989 L 88190,9978 86917,9978 86917,7797 88190,7797 88190,4543 91241,4543 91241,7797 93870,7797 93870,9978 91241,9978 Z"/>
       </g>
      </g>
      <g class="com.sun.star.drawing.ClosedBezierShape">
       <g id="id30">
        <rect class="BoundingBox" stroke="none" fill="none" x="22882" y="4543" width="7985" height="14284"/>
        <path fill="rgb(139,139,139)" stroke="none" d="M 27206,9978 L 27206,14848 C 27206,15263 27312,15589 27532,15828 27746,16063 28001,16179 28298,16179 28863,16179 29343,15926 29733,15415 L 30865,17531 C 29922,18395 28927,18825 27883,18825 26838,18825 25956,18482 25239,17795 24516,17107 24155,16175 24155,14989 L 24155,9978 22882,9978 22882,7797 24155,7797 24155,4543 27206,4543 27206,7797 29835,7797 29835,9978 27206,9978 Z"/>
       </g>
      </g>
      <g class="com.sun.star.drawing.ClosedBezierShape">
       <g id="id31">
        <rect class="BoundingBox" stroke="none" fill="none" x="63624" y="3675" width="11522" height="15151"/>
        <path fill="rgb(139,139,139)" stroke="none" d="M 71333,15405 C 70830,15961 70182,16239 69396,16239 68606,16239 67962,15961 67454,15405 66947,14844 66698,14121 66698,13234 66698,12341 66947,11614 67454,11048 67962,10481 68606,10198 69396,10198 70182,10198 70830,10481 71333,11048 71840,11614 72089,12341 72089,13234 72089,14121 71840,14844 71333,15405 Z M 73505,9243 C 72417,8159 71045,7613 69396,7613 68376,7613 67460,7822 66654,8237 L 66654,3675 63624,3675 63624,18825 66654,18825 66654,18200 C 67460,18615 68371,18825 69396,18825 71045,18825 72417,18289 73505,17209 74598,16132 75144,14804 75144,13234 75144,11658 74598,10325 73505,9243 Z"/>
       </g>
      </g>
     </g>
    </g>
   </g>
  </g>
 </g>
</svg>